<?xml version="1.0" standalone="no"?><!DOCTYPE svg PUBLIC "-//W3C//DTD SVG 1.1//EN" "http://www.w3.org/Graphics/SVG/1.1/DTD/svg11.dtd"><svg t="1642578567854" class="icon" viewBox="0 0 1024 1024" version="1.1" xmlns="http://www.w3.org/2000/svg" p-id="2454" xmlns:xlink="http://www.w3.org/1999/xlink" width="200" height="200"><defs><style type="text/css"></style></defs><path d="M926.72 516.8c-3.04-99.52-13.92-179.04-129.92-292S624 106.88 544 112c-222.56 16-280.48 69.44-350.56 150.56S96 434.88 97.12 488.8 125.12 679.84 197.76 768s140.96 128 292.48 144 269.44-67.52 334.56-131.04a362.4 362.4 0 0 0 101.92-264.16zM864 368c2.88 0 12.48 28.48 20 58.56a106.56 106.56 0 0 1 4 44.96 90.56 90.56 0 0 1-30.56-45.44c-7.2-28.32 2.72-58.08 6.56-58.08z m8 292.48c-27.36 54.88-104 152.32-172.8 178.4S509.12 919.84 384 861.76 221.76 748.8 176 656 126.24 469.76 148.64 402.4s94.56-156 153.12-196 136.48-53.44 187.52-58.56c67.04-6.56 132.48-8.48 190.08 20.96s143.04 128 156.96 144.96a124.8 124.8 0 0 1 20.48 35.04s-28.16 19.2-17.6 68 28.96 68.96 36.96 75.52a69.76 69.76 0 0 0 17.44 10.08s5.12 102.88-21.92 157.92zM784 297.28c4.96 3.52 2.56-5.92 3.52-9.44a170.24 170.24 0 0 0-44.48-37.44 12.8 12.8 0 0 0-4 11.04c0.64 2.4 39.68 32.32 44.96 35.84z m-42.56 4.48s-4.96 8.96-3.52 11.04 56 48.96 56 48.96a13.76 13.76 0 0 0 3.04-9.44 400 400 0 0 0-55.84-50.56zM784 395.36c1.44 0 3.04-6.56 3.04-11.04a390.4 390.4 0 0 0-53.44-44.48c-3.04-1.44-7.04 10.08-8 14.56s56.64 41.44 58.4 40.96z m-115.52-71.04A39.52 39.52 0 0 0 612.64 288c-41.92 16-38.56 72-13.44 84.48a52.32 52.32 0 0 0 68.96-48.16z m-51.84-23.84a27.36 27.36 0 0 1 38.4 25.6 36.16 36.16 0 0 1-48 32.8c-17.28-8.64-19.84-47.04 9.28-58.4z m-398.4 139.84c4.96 0 1.44-12 9.44-41.92a140.64 140.64 0 0 1 32.96-55.52c1.44-1.44-16-10.72-17.44-9.92-5.44 2.08-20.48 32-28.96 51.04a176 176 0 0 0-12.96 53.44c0.96 2.88 11.84 3.36 16.96 2.88zM512 422.4c-10.08-80-77.76-101.44-119.04-91.04-120.96 30.4-91.84 132.64-27.2 171.52s156.48-1.12 146.24-80.48z m-131.68 54.88c-43.68-26.72-64-96 18.56-116.16a66.72 66.72 0 0 1 80 61.6c7.52 53.92-54.72 81.28-98.4 54.56zM272 566.88c-0.96-32-25.76-36.8-34.56-32.96-47.04 20.48-34.56 72.48-10.56 78.56s46.24-13.12 45.12-45.6z m-41.44 32.96c-16-5.92-19.52-38.56 10.08-48 10.08-3.2 21.44 8.48 20 23.04s-14.4 30.88-29.92 24.96zM480 638.4a37.28 37.28 0 0 0 11.52 71.52 39.84 39.84 0 0 0 38.56-52c-4.96-24.16-27.36-31.36-50.08-19.52z m3.52 56c-16-8-17.44-28.96 3.52-41.44a19.36 19.36 0 0 1 31.04 16.96 25.12 25.12 0 0 1-33.92 24.48z m-140 7.04c-12.48-9.92-9.92-19.04-12-20.96a48 48 0 0 0-12.48 1.44c-3.52 1.44 4 18.08 12 25.44a65.12 65.12 0 0 0 24 15.04c3.52 0 4.48-4 5.44-7.52s-3.84-3.52-16.32-13.6zM320 718.4a103.52 103.52 0 0 1-22.56-33.92s-11.04 0-13.44 3.04 7.52 18.56 16.96 29.44a240 240 0 0 0 34.08 32c3.52 1.44 8-3.52 9.44-7.04S336 734.4 320 718.4z m-23.04 16a312.64 312.64 0 0 1-29.92-45.92 61.12 61.12 0 0 0-14.56 5.44c-3.04 2.56 4.96 16 20.48 33.44s36.96 38.08 42.08 37.44a7.68 7.68 0 0 0 7.52-5.92c1.6-2.56-7.36-4.48-24.8-24z m328 24c-41.92 2.56-28.48 44.48-14.56 52s36 10.08 42.08-16-3.68-36.96-26.72-35.52z m15.04 36.48a13.92 13.92 0 0 1-24.48 0 16 16 0 0 1 11.52-23.52 16 16 0 0 1 12.96 23.52z m77.44-226.56c-55.52 12.96-68.96 50.56-52 89.44s32 41.44 63.04 35.04 70.56-36.48 59.52-79.04-30.72-54.88-70.88-45.44z m33.44 100c-25.44 16-37.44 20-61.92-2.56s-29.92-65.44 24-82.56c13.12-4.16 42.08-13.44 53.44 18.08s9.76 51.04-15.68 67.04zM844.16 512c-3.52 0-8 7.52-8.48 11.04a276.48 276.48 0 0 0 38.56 38.08c2.08 0.96 4.48-4.96 4.48-8.96A170.24 170.24 0 0 0 844.16 512z m-32 33.92a612.96 612.96 0 0 0 52.96 55.52c2.08 0.96 3.04-4.96 3.52-9.44s-48-52.8-48-56-6.88 8-8 9.76z m6.08 36.48c-1.92 0-9.92 10.08-9.92 11.52s46.08 47.04 48 48 4.96-7.52 4.96-11.04a357.12 357.12 0 0 0-42.56-48.48z" fill="#1D1D1B" p-id="2455"></path></svg>